<svg width="40" height="40" viewBox="0 0 512 512" fill="none" xmlns="http://www.w3.org/2000/svg">
  <defs>
    <linearGradient id="sg" x1="256" y1="32" x2="256" y2="492" gradientUnits="userSpaceOnUse">
      <stop offset="0%" stop-color="#2E6BF0"/>
      <stop offset="100%" stop-color="#0A2460"/>
    </linearGradient>
    <linearGradient id="cg" x1="280" y1="280" x2="380" y2="400" gradientUnits="userSpaceOnUse">
      <stop offset="0%" stop-color="#00E6A8"/>
      <stop offset="100%" stop-color="#00A870"/>
    </linearGradient>
  </defs>
  <path d="M 256 32 L 448 72 Q 452 72 452 76 L 452 240 C 452 340 380 420 256 492 C 132 420 60 340 60 240 L 60 76 Q 60 72 64 72 Z" fill="url(#sg)"/>
  <path d="M 256 130 L 148 222 L 172 222 L 172 340 L 254 340 L 254 270 L 290 270 L 290 340 L 340 340 L 340 222 L 364 222 Z" fill="white"/>
  <rect x="254" y="270" width="36" height="70" rx="2" fill="#1B50C8" fill-opacity="0.25"/>
  <rect x="190" y="240" width="42" height="36" rx="4" fill="#1B50C8" fill-opacity="0.18"/>
  <rect x="306" y="240" width="18" height="36" rx="3" fill="#1B50C8" fill-opacity="0.18"/>
  <circle cx="380" cy="390" r="56" fill="url(#cg)"/>
  <path d="M 355 390 L 372 407 L 408 368" stroke="white" stroke-width="10" stroke-linecap="round" stroke-linejoin="round" fill="none"/>
</svg>
